<?xml version="1.0" standalone="no"?><!DOCTYPE svg PUBLIC "-//W3C//DTD SVG 1.1//EN" "http://www.w3.org/Graphics/SVG/1.1/DTD/svg11.dtd"><svg t="1691421027741" class="icon" viewBox="0 0 1024 1024" version="1.1" xmlns="http://www.w3.org/2000/svg" p-id="5076" xmlns:xlink="http://www.w3.org/1999/xlink" width="200" height="200"><path d="M487.392 408.69h329.07v285.896h-329.07z" fill="#F88703" p-id="5077"></path><path d="M816.46 726.039c0 8.861-1.508 17.123-4.54 24.8-3.014 7.685-7.326 14.442-12.907 20.271-5.58 5.83-12.1 10.37-19.55 13.618-7.437 3.252-15.588 4.891-24.43 4.9H290.496c-8.844 0-17.22-1.628-25.128-4.9-7.908-3.271-14.891-7.8-20.952-13.618a64.846 64.846 0 0 1-14.313-20.271c-3.488-7.686-5.23-15.947-5.23-24.8V377.256c0-17.714 6.162-32.744 18.49-45.092 12.335-12.346 27.346-18.518 45.035-18.518h464.536c17.694 0 32.703 6.175 45.043 18.518 12.316 12.35 18.489 27.378 18.489 45.092v95.058H657.999c-17.693 0-32.702 6.06-45.034 18.174-12.325 12.133-18.497 27.05-18.497 44.744 0.464 12.12 3.023 22.838 7.685 32.156 3.725 7.923 9.896 15.144 18.497 21.676 8.604 6.53 21.059 9.802 37.348 9.802h158.463v127.21-0.037z" fill="#FCB825" p-id="5078"></path><path d="M721.526 281.503H404.604c25.137-13.045 48.876-25.631 71.212-37.751a6957.645 6957.645 0 0 0 57.94-30.756c19.076-10.25 33.974-18.172 44.682-23.78 16.291-8.855 30.825-12.937 43.616-12.23 12.794 0.697 23.616 2.915 32.457 6.638 10.257 5.134 19.085 11.887 26.535 20.268l40.48 77.61z" fill="#F88703" p-id="5079"></path><path d="M626.595 535.233c0-8.861 3.014-16.31 9.068-22.365 6.046-6.058 13.483-9.09 22.336-9.09 8.853 0 16.29 3.032 22.335 9.09 6.046 6.054 9.069 13.504 9.069 22.365 0 8.862-3.023 16.437-9.069 22.728-6.045 6.291-13.482 9.431-22.335 9.431-8.852 0-16.29-3.14-22.336-9.431-6.058-6.291-9.068-13.866-9.068-22.728z" fill="#FCB825" p-id="5080"></path></svg>